# xmcd
#
# Track frame offsets:
#	150
#	11850
#	25559
#	39719
#	53424
#	67237
#	81839
#	93793
#	107941
#	121963
#	135089
#	148269
#	163701
#	176988
#	190891
#	203444
#	216372
#	228369
#
# Disc length: 3213 seconds
#
# Revision: 0
# Processed by: cddbd v1.4PL0 Copyright (c) Steve Scherf et al.
# Submitted via: audiograbber 1.81.02
#
DISCID=f90c8b12
DTITLE=Lonnie Johnson - The Blues 1925 - 1947 - CD2
DYEAR=1900
DGENRE=Blues
TTITLE0=Swing Out Rhythm
TTITLE1=Blue Ghost Blues
TTITLE2=She's Only A Woman
TTITLE3=Jersey Bell Blues
TTITLE4=I'm Just Dumb
TTITLE5=Get Yourself Together
TTITLE6=Crowing Rooster
TTITLE7=Somebody's Got To Go
TTITLE8=I Did All I Could
TTITLE9=In Love Again
TTITLE10=Rambler's Blues
TTITLE11=Trouble In Mind
TTITLE12=Keep What You Got
TTITLE13=Blues For Everybody
TTITLE14=Love Is The Answer
TTITLE15=What A Woman
TTITLE16=What A Real Woman
TTITLE17=Falling Rain Blues
EXTD=Frémeaux et Clombini SA\nRéf - FA262
EXTT0=
EXTT1=
EXTT2=
EXTT3=
EXTT4=
EXTT5=
EXTT6=
EXTT7=
EXTT8=
EXTT9=
EXTT10=
EXTT11=
EXTT12=
EXTT13=
EXTT14=
EXTT15=
EXTT16=
EXTT17=
PLAYORDER=
